{
	"patcher" : 	{
		"fileversion" : 1,
		"appversion" : 		{
			"major" : 8,
			"minor" : 1,
			"revision" : 8,
			"architecture" : "x64",
			"modernui" : 1
		}
,
		"classnamespace" : "box",
		"rect" : [ 59.0, 103.0, 1562.0, 720.0 ],
		"bglocked" : 0,
		"openinpresentation" : 0,
		"default_fontsize" : 12.0,
		"default_fontface" : 0,
		"default_fontname" : "Arial",
		"gridonopen" : 1,
		"gridsize" : [ 15.0, 15.0 ],
		"gridsnaponopen" : 1,
		"objectsnaponopen" : 1,
		"statusbarvisible" : 2,
		"toolbarvisible" : 1,
		"lefttoolbarpinned" : 0,
		"toptoolbarpinned" : 0,
		"righttoolbarpinned" : 0,
		"bottomtoolbarpinned" : 0,
		"toolbars_unpinned_last_save" : 0,
		"tallnewobj" : 0,
		"boxanimatetime" : 200,
		"enablehscroll" : 1,
		"enablevscroll" : 1,
		"devicewidth" : 0.0,
		"description" : "",
		"digest" : "",
		"tags" : "",
		"style" : "",
		"subpatcher_template" : "",
		"assistshowspatchername" : 0,
		"boxes" : [ 			{
				"box" : 				{
					"bubble" : 1,
					"bubbletextmargin" : 10,
					"fontname" : "Lato Regular",
					"fontsize" : 12.0,
					"id" : "obj-36",
					"maxclass" : "comment",
					"numinlets" : 1,
					"numoutlets" : 0,
					"patching_rect" : [ 820.5, 115.5, 150.0, 35.0 ],
					"text" : "Store presets in a dict",
					"textcolor" : [ 0.3, 0.3, 0.3, 1.0 ]
				}

			}
, 			{
				"box" : 				{
					"bubble" : 1,
					"bubbletextmargin" : 10,
					"fontname" : "Lato Regular",
					"fontsize" : 12.0,
					"id" : "obj-27",
					"linecount" : 2,
					"maxclass" : "comment",
					"numinlets" : 1,
					"numoutlets" : 0,
					"patching_rect" : [ 820.5, 36.5, 160.0, 49.0 ],
					"presentation_linecount" : 2,
					"text" : "Recall presets stored in a dict",
					"textcolor" : [ 0.3, 0.3, 0.3, 1.0 ]
				}

			}
, 			{
				"box" : 				{
					"id" : "obj-24",
					"maxclass" : "newobj",
					"numinlets" : 1,
					"numoutlets" : 1,
					"outlettype" : [ "bang" ],
					"patching_rect" : [ 734.0, 198.5, 60.0, 22.0 ],
					"text" : "loadbang"
				}

			}
, 			{
				"box" : 				{
					"id" : "obj-9",
					"maxclass" : "dict.view",
					"numinlets" : 1,
					"numoutlets" : 0,
					"patching_rect" : [ 790.0, 315.5, 317.0, 282.0 ]
				}

			}
, 			{
				"box" : 				{
					"id" : "obj-12",
					"maxclass" : "message",
					"numinlets" : 2,
					"numoutlets" : 1,
					"outlettype" : [ "" ],
					"patching_rect" : [ 734.0, 222.5, 139.0, 22.0 ],
					"text" : "read demo_presets.json"
				}

			}
, 			{
				"box" : 				{
					"id" : "obj-13",
					"maxclass" : "tab",
					"numinlets" : 1,
					"numoutlets" : 3,
					"outlettype" : [ "int", "", "" ],
					"parameter_enable" : 0,
					"patching_rect" : [ 634.0, 48.5, 171.0, 24.0 ],
					"tabs" : [ "preset1", "preset2", "preset3" ]
				}

			}
, 			{
				"box" : 				{
					"id" : "obj-16",
					"maxclass" : "newobj",
					"numinlets" : 1,
					"numoutlets" : 1,
					"outlettype" : [ "" ],
					"patching_rect" : [ 710.0, 81.5, 87.0, 22.0 ],
					"text" : "prepend recall"
				}

			}
, 			{
				"box" : 				{
					"id" : "obj-17",
					"maxclass" : "tab",
					"numinlets" : 1,
					"numoutlets" : 3,
					"outlettype" : [ "int", "", "" ],
					"parameter_enable" : 0,
					"patching_rect" : [ 634.0, 123.5, 171.0, 24.0 ],
					"tabs" : [ "preset1", "preset2", "preset3" ]
				}

			}
, 			{
				"box" : 				{
					"id" : "obj-19",
					"maxclass" : "newobj",
					"numinlets" : 1,
					"numoutlets" : 1,
					"outlettype" : [ "" ],
					"patching_rect" : [ 710.0, 154.5, 85.0, 22.0 ],
					"text" : "prepend store"
				}

			}
, 			{
				"box" : 				{
					"id" : "obj-22",
					"linecount" : 2,
					"maxclass" : "newobj",
					"numinlets" : 1,
					"numoutlets" : 2,
					"outlettype" : [ "", "dictionary" ],
					"patcher" : 					{
						"fileversion" : 1,
						"appversion" : 						{
							"major" : 8,
							"minor" : 1,
							"revision" : 8,
							"architecture" : "x64",
							"modernui" : 1
						}
,
						"classnamespace" : "box",
						"rect" : [ 785.0, 277.0, 735.0, 550.0 ],
						"bglocked" : 0,
						"openinpresentation" : 0,
						"default_fontsize" : 12.0,
						"default_fontface" : 0,
						"default_fontname" : "Arial",
						"gridonopen" : 1,
						"gridsize" : [ 15.0, 15.0 ],
						"gridsnaponopen" : 1,
						"objectsnaponopen" : 1,
						"statusbarvisible" : 2,
						"toolbarvisible" : 1,
						"lefttoolbarpinned" : 0,
						"toptoolbarpinned" : 0,
						"righttoolbarpinned" : 0,
						"bottomtoolbarpinned" : 0,
						"toolbars_unpinned_last_save" : 0,
						"tallnewobj" : 0,
						"boxanimatetime" : 200,
						"enablehscroll" : 1,
						"enablevscroll" : 1,
						"devicewidth" : 0.0,
						"description" : "",
						"digest" : "",
						"tags" : "",
						"style" : "",
						"subpatcher_template" : "",
						"assistshowspatchername" : 0,
						"boxes" : [ 							{
								"box" : 								{
									"id" : "obj-9",
									"maxclass" : "newobj",
									"numinlets" : 1,
									"numoutlets" : 2,
									"outlettype" : [ "bang", "" ],
									"patching_rect" : [ 442.333344000000011, 214.0, 30.0, 22.0 ],
									"text" : "t b l"
								}

							}
, 							{
								"box" : 								{
									"comment" : "",
									"id" : "obj-8",
									"index" : 2,
									"maxclass" : "outlet",
									"numinlets" : 1,
									"numoutlets" : 0,
									"patching_rect" : [ 258.0, 481.0, 30.0, 30.0 ]
								}

							}
, 							{
								"box" : 								{
									"id" : "obj-13",
									"maxclass" : "message",
									"numinlets" : 2,
									"numoutlets" : 1,
									"outlettype" : [ "" ],
									"patching_rect" : [ 393.333344000000011, 166.0, 36.0, 22.0 ],
									"text" : "read"
								}

							}
, 							{
								"box" : 								{
									"id" : "obj-12",
									"maxclass" : "newobj",
									"numinlets" : 2,
									"numoutlets" : 2,
									"outlettype" : [ "bang", "" ],
									"patching_rect" : [ 423.333344000000011, 120.0, 64.0, 22.0 ],
									"text" : "sel bang"
								}

							}
, 							{
								"box" : 								{
									"id" : "obj-11",
									"maxclass" : "message",
									"numinlets" : 2,
									"numoutlets" : 1,
									"outlettype" : [ "" ],
									"patching_rect" : [ 508.166655999999989, 166.0, 36.0, 22.0 ],
									"text" : "write"
								}

							}
, 							{
								"box" : 								{
									"id" : "obj-7",
									"maxclass" : "newobj",
									"numinlets" : 2,
									"numoutlets" : 2,
									"outlettype" : [ "bang", "" ],
									"patching_rect" : [ 508.166655999999989, 130.0, 64.0, 22.0 ],
									"text" : "sel bang"
								}

							}
, 							{
								"box" : 								{
									"id" : "obj-6",
									"maxclass" : "newobj",
									"numinlets" : 1,
									"numoutlets" : 1,
									"outlettype" : [ "" ],
									"patching_rect" : [ 553.166625999999951, 166.0, 83.0, 22.0 ],
									"text" : "prepend write"
								}

							}
, 							{
								"box" : 								{
									"id" : "obj-4",
									"linecount" : 2,
									"maxclass" : "newobj",
									"numinlets" : 1,
									"numoutlets" : 1,
									"outlettype" : [ "" ],
									"patching_rect" : [ 442.333344000000011, 166.0, 56.0, 35.0 ],
									"text" : "prepend read"
								}

							}
, 							{
								"box" : 								{
									"id" : "obj-43",
									"maxclass" : "message",
									"numinlets" : 2,
									"numoutlets" : 1,
									"outlettype" : [ "" ],
									"patching_rect" : [ 425.0, 302.0, 37.0, 22.0 ],
									"text" : "clear"
								}

							}
, 							{
								"box" : 								{
									"id" : "obj-41",
									"maxclass" : "button",
									"numinlets" : 1,
									"numoutlets" : 1,
									"outlettype" : [ "bang" ],
									"parameter_enable" : 0,
									"patching_rect" : [ 387.0, 303.0, 24.0, 24.0 ]
								}

							}
, 							{
								"box" : 								{
									"id" : "obj-32",
									"maxclass" : "newobj",
									"numinlets" : 1,
									"numoutlets" : 1,
									"outlettype" : [ "" ],
									"patching_rect" : [ 243.0, 144.0, 75.0, 22.0 ],
									"text" : "prepend get"
								}

							}
, 							{
								"box" : 								{
									"id" : "obj-31",
									"maxclass" : "newobj",
									"numinlets" : 1,
									"numoutlets" : 3,
									"outlettype" : [ "bang", "bang", "" ],
									"patching_rect" : [ 132.666672000000005, 136.0, 40.0, 22.0 ],
									"text" : "t b b l"
								}

							}
, 							{
								"box" : 								{
									"id" : "obj-30",
									"maxclass" : "message",
									"numinlets" : 2,
									"numoutlets" : 1,
									"outlettype" : [ "" ],
									"patching_rect" : [ 153.666672000000005, 196.0, 86.0, 22.0 ],
									"text" : "set replace $1"
								}

							}
, 							{
								"box" : 								{
									"id" : "obj-28",
									"maxclass" : "newobj",
									"numinlets" : 2,
									"numoutlets" : 2,
									"outlettype" : [ "", "" ],
									"patching_rect" : [ 282.166687000000024, 343.0, 57.0, 22.0 ],
									"text" : "zl slice 1"
								}

							}
, 							{
								"box" : 								{
									"id" : "obj-26",
									"maxclass" : "newobj",
									"numinlets" : 1,
									"numoutlets" : 1,
									"outlettype" : [ "" ],
									"patching_rect" : [ 282.166687000000024, 377.0, 49.0, 22.0 ],
									"text" : "dict.iter"
								}

							}
, 							{
								"box" : 								{
									"id" : "obj-21",
									"maxclass" : "newobj",
									"numinlets" : 1,
									"numoutlets" : 1,
									"outlettype" : [ "" ],
									"patching_rect" : [ 84.0, 243.0, 120.0, 22.0 ],
									"text" : "prepend replace test"
								}

							}
, 							{
								"box" : 								{
									"id" : "obj-17",
									"maxclass" : "newobj",
									"numinlets" : 1,
									"numoutlets" : 1,
									"outlettype" : [ "dictionary" ],
									"patching_rect" : [ 84.0, 196.0, 63.0, 22.0 ],
									"text" : "dict.group"
								}

							}
, 							{
								"box" : 								{
									"id" : "obj-16",
									"maxclass" : "newobj",
									"numinlets" : 2,
									"numoutlets" : 4,
									"outlettype" : [ "dictionary", "", "", "" ],
									"patching_rect" : [ 258.0, 303.0, 91.5, 22.0 ],
									"saved_object_attributes" : 									{
										"embed" : 0,
										"parameter_enable" : 0,
										"parameter_mappable" : 0
									}
,
									"text" : "dict"
								}

							}
, 							{
								"box" : 								{
									"id" : "obj-10",
									"maxclass" : "newobj",
									"numinlets" : 1,
									"numoutlets" : 1,
									"outlettype" : [ "" ],
									"patching_rect" : [ 282.166687000000024, 409.0, 74.0, 22.0 ],
									"text" : "prepend set"
								}

							}
, 							{
								"box" : 								{
									"id" : "obj-5",
									"maxclass" : "newobj",
									"numinlets" : 7,
									"numoutlets" : 7,
									"outlettype" : [ "", "", "", "", "", "", "" ],
									"patching_rect" : [ 84.0, 95.0, 528.0, 22.0 ],
									"text" : "route namespace store recall delete read write"
								}

							}
, 							{
								"box" : 								{
									"id" : "obj-3",
									"maxclass" : "message",
									"numinlets" : 2,
									"numoutlets" : 1,
									"outlettype" : [ "" ],
									"patching_rect" : [ 143.0, 379.0, 73.0, 22.0 ],
									"text" : "namespace"
								}

							}
, 							{
								"box" : 								{
									"comment" : "",
									"id" : "obj-2",
									"index" : 1,
									"maxclass" : "inlet",
									"numinlets" : 0,
									"numoutlets" : 1,
									"outlettype" : [ "" ],
									"patching_rect" : [ 84.0, 28.0, 30.0, 30.0 ]
								}

							}
, 							{
								"box" : 								{
									"comment" : "",
									"id" : "obj-1",
									"index" : 1,
									"maxclass" : "outlet",
									"numinlets" : 1,
									"numoutlets" : 0,
									"patching_rect" : [ 143.0, 464.0, 30.0, 30.0 ]
								}

							}
, 							{
								"box" : 								{
									"id" : "obj-38",
									"maxclass" : "message",
									"numinlets" : 2,
									"numoutlets" : 1,
									"outlettype" : [ "" ],
									"patching_rect" : [ 330.0, 130.0, 66.0, 22.0 ],
									"text" : "remove $1"
								}

							}
 ],
						"lines" : [ 							{
								"patchline" : 								{
									"destination" : [ "obj-1", 0 ],
									"source" : [ "obj-10", 0 ]
								}

							}
, 							{
								"patchline" : 								{
									"destination" : [ "obj-16", 0 ],
									"source" : [ "obj-11", 0 ]
								}

							}
, 							{
								"patchline" : 								{
									"destination" : [ "obj-13", 0 ],
									"source" : [ "obj-12", 0 ]
								}

							}
, 							{
								"patchline" : 								{
									"destination" : [ "obj-4", 0 ],
									"source" : [ "obj-12", 1 ]
								}

							}
, 							{
								"patchline" : 								{
									"destination" : [ "obj-16", 0 ],
									"source" : [ "obj-13", 0 ]
								}

							}
, 							{
								"patchline" : 								{
									"destination" : [ "obj-28", 0 ],
									"source" : [ "obj-16", 1 ]
								}

							}
, 							{
								"patchline" : 								{
									"destination" : [ "obj-8", 0 ],
									"source" : [ "obj-16", 0 ]
								}

							}
, 							{
								"patchline" : 								{
									"destination" : [ "obj-21", 0 ],
									"source" : [ "obj-17", 0 ]
								}

							}
, 							{
								"patchline" : 								{
									"destination" : [ "obj-5", 0 ],
									"source" : [ "obj-2", 0 ]
								}

							}
, 							{
								"patchline" : 								{
									"destination" : [ "obj-16", 0 ],
									"source" : [ "obj-21", 0 ]
								}

							}
, 							{
								"patchline" : 								{
									"destination" : [ "obj-10", 0 ],
									"source" : [ "obj-26", 0 ]
								}

							}
, 							{
								"patchline" : 								{
									"destination" : [ "obj-26", 0 ],
									"source" : [ "obj-28", 1 ]
								}

							}
, 							{
								"patchline" : 								{
									"destination" : [ "obj-1", 0 ],
									"source" : [ "obj-3", 0 ]
								}

							}
, 							{
								"patchline" : 								{
									"destination" : [ "obj-21", 0 ],
									"source" : [ "obj-30", 0 ]
								}

							}
, 							{
								"patchline" : 								{
									"destination" : [ "obj-17", 0 ],
									"source" : [ "obj-31", 0 ]
								}

							}
, 							{
								"patchline" : 								{
									"destination" : [ "obj-3", 0 ],
									"source" : [ "obj-31", 1 ]
								}

							}
, 							{
								"patchline" : 								{
									"destination" : [ "obj-30", 0 ],
									"source" : [ "obj-31", 2 ]
								}

							}
, 							{
								"patchline" : 								{
									"destination" : [ "obj-16", 0 ],
									"source" : [ "obj-32", 0 ]
								}

							}
, 							{
								"patchline" : 								{
									"destination" : [ "obj-16", 0 ],
									"source" : [ "obj-38", 0 ]
								}

							}
, 							{
								"patchline" : 								{
									"destination" : [ "obj-9", 0 ],
									"source" : [ "obj-4", 0 ]
								}

							}
, 							{
								"patchline" : 								{
									"destination" : [ "obj-16", 0 ],
									"source" : [ "obj-41", 0 ]
								}

							}
, 							{
								"patchline" : 								{
									"destination" : [ "obj-16", 0 ],
									"source" : [ "obj-43", 0 ]
								}

							}
, 							{
								"patchline" : 								{
									"destination" : [ "obj-12", 0 ],
									"source" : [ "obj-5", 4 ]
								}

							}
, 							{
								"patchline" : 								{
									"destination" : [ "obj-17", 0 ],
									"source" : [ "obj-5", 0 ]
								}

							}
, 							{
								"patchline" : 								{
									"destination" : [ "obj-31", 0 ],
									"source" : [ "obj-5", 1 ]
								}

							}
, 							{
								"patchline" : 								{
									"destination" : [ "obj-32", 0 ],
									"source" : [ "obj-5", 2 ]
								}

							}
, 							{
								"patchline" : 								{
									"destination" : [ "obj-38", 0 ],
									"source" : [ "obj-5", 3 ]
								}

							}
, 							{
								"patchline" : 								{
									"destination" : [ "obj-7", 0 ],
									"source" : [ "obj-5", 5 ]
								}

							}
, 							{
								"patchline" : 								{
									"destination" : [ "obj-16", 0 ],
									"source" : [ "obj-6", 0 ]
								}

							}
, 							{
								"patchline" : 								{
									"destination" : [ "obj-11", 0 ],
									"source" : [ "obj-7", 0 ]
								}

							}
, 							{
								"patchline" : 								{
									"destination" : [ "obj-6", 0 ],
									"source" : [ "obj-7", 1 ]
								}

							}
, 							{
								"patchline" : 								{
									"destination" : [ "obj-16", 0 ],
									"source" : [ "obj-9", 1 ]
								}

							}
, 							{
								"patchline" : 								{
									"destination" : [ "obj-16", 0 ],
									"source" : [ "obj-9", 0 ]
								}

							}
 ],
						"styles" : [ 							{
								"name" : "Jamoma_highlighted_orange",
								"default" : 								{
									"accentcolor" : [ 1.0, 0.5, 0.0, 1.0 ]
								}
,
								"parentstyle" : "",
								"multi" : 0
							}
 ]
					}
,
					"patching_rect" : [ 710.0, 259.0, 99.0, 35.0 ],
					"presentation_linecount" : 2,
					"saved_object_attributes" : 					{
						"description" : "",
						"digest" : "",
						"globalpatchername" : "",
						"tags" : ""
					}
,
					"text" : "p preset_manager"
				}

			}
, 			{
				"box" : 				{
					"bubble" : 1,
					"bubbletextmargin" : 10,
					"fontname" : "Lato Regular",
					"fontsize" : 12.0,
					"id" : "obj-34",
					"linecount" : 2,
					"maxclass" : "comment",
					"numinlets" : 1,
					"numoutlets" : 0,
					"patching_rect" : [ 416.0, 206.0, 172.0, 49.0 ],
					"presentation_linecount" : 2,
					"text" : "Recall example or user defined presets ",
					"textcolor" : [ 0.3, 0.3, 0.3, 1.0 ]
				}

			}
, 			{
				"box" : 				{
					"bubble" : 1,
					"bubbletextmargin" : 10,
					"fontname" : "Lato Regular",
					"fontsize" : 12.0,
					"id" : "obj-33",
					"linecount" : 2,
					"maxclass" : "comment",
					"numinlets" : 1,
					"numoutlets" : 0,
					"patching_rect" : [ 368.0, 29.5, 162.0, 49.0 ],
					"presentation_linecount" : 2,
					"text" : "Set name & path to store preset",
					"textcolor" : [ 0.3, 0.3, 0.3, 1.0 ]
				}

			}
, 			{
				"box" : 				{
					"id" : "obj-31",
					"maxclass" : "newobj",
					"numinlets" : 1,
					"numoutlets" : 1,
					"outlettype" : [ "" ],
					"patching_rect" : [ 347.0, 315.5, 79.0, 22.0 ],
					"text" : "absolutepath"
				}

			}
, 			{
				"box" : 				{
					"id" : "obj-30",
					"maxclass" : "message",
					"numinlets" : 2,
					"numoutlets" : 1,
					"outlettype" : [ "" ],
					"patching_rect" : [ 455.0, 275.0, 103.0, 22.0 ],
					"text" : "demo_preset2.txt"
				}

			}
, 			{
				"box" : 				{
					"id" : "obj-29",
					"maxclass" : "message",
					"numinlets" : 2,
					"numoutlets" : 1,
					"outlettype" : [ "" ],
					"patching_rect" : [ 347.0, 275.0, 103.0, 22.0 ],
					"text" : "demo_preset1.txt"
				}

			}
, 			{
				"box" : 				{
					"id" : "obj-26",
					"maxclass" : "newobj",
					"numinlets" : 1,
					"numoutlets" : 1,
					"outlettype" : [ "" ],
					"patching_rect" : [ 320.0, 474.0, 117.0, 22.0 ],
					"text" : "prepend preset load"
				}

			}
, 			{
				"box" : 				{
					"id" : "obj-25",
					"maxclass" : "newobj",
					"numinlets" : 1,
					"numoutlets" : 2,
					"outlettype" : [ "", "int" ],
					"patching_rect" : [ 320.0, 369.0, 130.0, 22.0 ],
					"text" : "conformpath max boot"
				}

			}
, 			{
				"box" : 				{
					"id" : "obj-20",
					"maxclass" : "button",
					"numinlets" : 1,
					"numoutlets" : 1,
					"outlettype" : [ "bang" ],
					"parameter_enable" : 0,
					"patching_rect" : [ 320.0, 206.0, 24.0, 24.0 ]
				}

			}
, 			{
				"box" : 				{
					"id" : "obj-18",
					"maxclass" : "newobj",
					"numinlets" : 1,
					"numoutlets" : 2,
					"outlettype" : [ "", "bang" ],
					"patching_rect" : [ 320.0, 245.5, 69.0, 22.0 ],
					"text" : "opendialog"
				}

			}
, 			{
				"box" : 				{
					"id" : "obj-28",
					"maxclass" : "newobj",
					"numinlets" : 1,
					"numoutlets" : 2,
					"outlettype" : [ "", "int" ],
					"patching_rect" : [ 285.0, 129.0, 130.0, 22.0 ],
					"text" : "conformpath max boot"
				}

			}
, 			{
				"box" : 				{
					"id" : "obj-15",
					"maxclass" : "newobj",
					"numinlets" : 1,
					"numoutlets" : 1,
					"outlettype" : [ "" ],
					"patching_rect" : [ 285.0, 161.0, 120.0, 22.0 ],
					"text" : "prepend preset save"
				}

			}
, 			{
				"box" : 				{
					"id" : "obj-14",
					"maxclass" : "newobj",
					"numinlets" : 2,
					"numoutlets" : 2,
					"outlettype" : [ "", "" ],
					"patching_rect" : [ 285.0, 105.0, 109.0, 22.0 ],
					"text" : "combine PATH .txt"
				}

			}
, 			{
				"box" : 				{
					"id" : "obj-11",
					"maxclass" : "button",
					"numinlets" : 1,
					"numoutlets" : 1,
					"outlettype" : [ "bang" ],
					"parameter_enable" : 0,
					"patching_rect" : [ 285.0, 49.0, 24.0, 24.0 ]
				}

			}
, 			{
				"box" : 				{
					"id" : "obj-8",
					"maxclass" : "newobj",
					"numinlets" : 1,
					"numoutlets" : 3,
					"outlettype" : [ "", "", "bang" ],
					"patching_rect" : [ 285.0, 75.0, 68.0, 22.0 ],
					"text" : "savedialog"
				}

			}
, 			{
				"box" : 				{
					"color" : [ 0.12549, 0.796078, 0.894118, 1.0 ],
					"id" : "obj-7",
					"maxclass" : "newobj",
					"numinlets" : 1,
					"numoutlets" : 1,
					"outlettype" : [ "" ],
					"patching_rect" : [ 285.0, 607.5, 169.0, 22.0 ],
					"text" : "ossia.device my_fm_patcher"
				}

			}
, 			{
				"box" : 				{
					"args" : [ "heythere" ],
					"bgmode" : 0,
					"border" : 0,
					"clickthrough" : 0,
					"enablehscroll" : 0,
					"enablevscroll" : 0,
					"id" : "obj-1",
					"lockeddragscroll" : 0,
					"maxclass" : "bpatcher",
					"name" : "ossia.pvh.complexosc~.module.maxpat",
					"numinlets" : 3,
					"numoutlets" : 1,
					"offset" : [ 0.0, 0.0 ],
					"outlettype" : [ "multichannelsignal" ],
					"patching_rect" : [ 15.0, 15.0, 151.0, 218.0 ],
					"varname" : "ossia.pvh.complexosc~.module",
					"viewvisibility" : 1
				}

			}
 ],
		"lines" : [ 			{
				"patchline" : 				{
					"destination" : [ "obj-8", 0 ],
					"source" : [ "obj-11", 0 ]
				}

			}
, 			{
				"patchline" : 				{
					"destination" : [ "obj-22", 0 ],
					"source" : [ "obj-12", 0 ]
				}

			}
, 			{
				"patchline" : 				{
					"destination" : [ "obj-16", 0 ],
					"source" : [ "obj-13", 1 ]
				}

			}
, 			{
				"patchline" : 				{
					"destination" : [ "obj-28", 0 ],
					"source" : [ "obj-14", 0 ]
				}

			}
, 			{
				"patchline" : 				{
					"destination" : [ "obj-7", 0 ],
					"midpoints" : [ 294.5, 294.75, 294.5, 294.75 ],
					"source" : [ "obj-15", 0 ]
				}

			}
, 			{
				"patchline" : 				{
					"destination" : [ "obj-22", 0 ],
					"midpoints" : [ 719.5, 234.0, 719.5, 234.0 ],
					"source" : [ "obj-16", 0 ]
				}

			}
, 			{
				"patchline" : 				{
					"destination" : [ "obj-19", 0 ],
					"source" : [ "obj-17", 1 ]
				}

			}
, 			{
				"patchline" : 				{
					"destination" : [ "obj-25", 0 ],
					"source" : [ "obj-18", 0 ]
				}

			}
, 			{
				"patchline" : 				{
					"destination" : [ "obj-22", 0 ],
					"source" : [ "obj-19", 0 ]
				}

			}
, 			{
				"patchline" : 				{
					"destination" : [ "obj-18", 0 ],
					"source" : [ "obj-20", 0 ]
				}

			}
, 			{
				"patchline" : 				{
					"destination" : [ "obj-7", 0 ],
					"midpoints" : [ 719.5, 588.0, 294.5, 588.0 ],
					"source" : [ "obj-22", 0 ]
				}

			}
, 			{
				"patchline" : 				{
					"destination" : [ "obj-9", 0 ],
					"source" : [ "obj-22", 1 ]
				}

			}
, 			{
				"patchline" : 				{
					"destination" : [ "obj-12", 0 ],
					"source" : [ "obj-24", 0 ]
				}

			}
, 			{
				"patchline" : 				{
					"destination" : [ "obj-26", 0 ],
					"source" : [ "obj-25", 0 ]
				}

			}
, 			{
				"patchline" : 				{
					"destination" : [ "obj-7", 0 ],
					"midpoints" : [ 329.5, 588.25, 294.5, 588.25 ],
					"source" : [ "obj-26", 0 ]
				}

			}
, 			{
				"patchline" : 				{
					"destination" : [ "obj-15", 0 ],
					"source" : [ "obj-28", 0 ]
				}

			}
, 			{
				"patchline" : 				{
					"destination" : [ "obj-31", 0 ],
					"source" : [ "obj-29", 0 ]
				}

			}
, 			{
				"patchline" : 				{
					"destination" : [ "obj-31", 0 ],
					"midpoints" : [ 464.5, 307.25, 356.5, 307.25 ],
					"source" : [ "obj-30", 0 ]
				}

			}
, 			{
				"patchline" : 				{
					"destination" : [ "obj-25", 0 ],
					"source" : [ "obj-31", 0 ]
				}

			}
, 			{
				"patchline" : 				{
					"destination" : [ "obj-22", 0 ],
					"midpoints" : [ 294.5, 639.5, 673.0, 639.5, 673.0, 248.5, 719.5, 248.5 ],
					"source" : [ "obj-7", 0 ]
				}

			}
, 			{
				"patchline" : 				{
					"destination" : [ "obj-14", 0 ],
					"source" : [ "obj-8", 0 ]
				}

			}
 ],
		"parameters" : 		{
			"obj-1::obj-2::obj-10" : [ "live.dial", "morph", 0 ],
			"obj-1::obj-2::obj-12" : [ "live.dial[2]", "index", 0 ],
			"obj-1::obj-2::obj-16" : [ "live.dial[3]", "noise", 0 ],
			"obj-1::obj-2::obj-1::obj-105::obj-10::obj-10::obj-145" : [ "live.menu[8]", "live.menu", 0 ],
			"obj-1::obj-2::obj-1::obj-105::obj-10::obj-196" : [ "live.text[13]", "live.text", 0 ],
			"obj-1::obj-2::obj-1::obj-105::obj-182" : [ "live.text[14]", "live.text[4]", 0 ],
			"obj-1::obj-2::obj-1::obj-117::obj-10::obj-10::obj-145" : [ "live.menu[7]", "live.menu", 0 ],
			"obj-1::obj-2::obj-1::obj-117::obj-10::obj-196" : [ "live.text[9]", "live.text", 0 ],
			"obj-1::obj-2::obj-1::obj-117::obj-182" : [ "live.text[12]", "live.text[4]", 0 ],
			"obj-1::obj-2::obj-1::obj-121::obj-10::obj-10::obj-145" : [ "live.menu[6]", "live.menu", 0 ],
			"obj-1::obj-2::obj-1::obj-121::obj-10::obj-196" : [ "live.text[7]", "live.text", 0 ],
			"obj-1::obj-2::obj-1::obj-121::obj-182" : [ "live.text[8]", "live.text[4]", 0 ],
			"obj-1::obj-2::obj-1::obj-66::obj-10::obj-10::obj-145" : [ "live.menu[4]", "live.menu", 0 ],
			"obj-1::obj-2::obj-1::obj-66::obj-10::obj-196" : [ "live.text[10]", "live.text", 0 ],
			"obj-1::obj-2::obj-1::obj-66::obj-182" : [ "live.text[11]", "live.text[4]", 0 ],
			"obj-1::obj-2::obj-1::obj-67::obj-10::obj-10::obj-145" : [ "live.menu[1]", "live.menu", 0 ],
			"obj-1::obj-2::obj-1::obj-67::obj-10::obj-196" : [ "live.text[1]", "live.text", 0 ],
			"obj-1::obj-2::obj-1::obj-67::obj-182" : [ "live.text[2]", "live.text[4]", 0 ],
			"obj-1::obj-2::obj-1::obj-68::obj-10::obj-10::obj-145" : [ "live.menu[5]", "live.menu", 0 ],
			"obj-1::obj-2::obj-1::obj-68::obj-10::obj-196" : [ "live.text[3]", "live.text", 0 ],
			"obj-1::obj-2::obj-1::obj-68::obj-182" : [ "live.text[4]", "live.text[4]", 0 ],
			"obj-1::obj-2::obj-1::obj-70::obj-10::obj-10::obj-145" : [ "live.menu[2]", "live.menu", 0 ],
			"obj-1::obj-2::obj-1::obj-70::obj-10::obj-196" : [ "live.text[5]", "live.text", 0 ],
			"obj-1::obj-2::obj-1::obj-70::obj-182" : [ "live.text[6]", "live.text[4]", 0 ],
			"obj-1::obj-2::obj-21" : [ "live.text[32]", "live.text", 0 ],
			"obj-1::obj-2::obj-23::obj-100" : [ "live.text[15]", "live.text", 0 ],
			"obj-1::obj-2::obj-23::obj-12" : [ "live.numbox[1]", "live.numbox", 0 ],
			"obj-1::obj-2::obj-30" : [ "live.toggle[2]", "live.toggle", 0 ],
			"obj-1::obj-2::obj-36" : [ "live.numbox[30]", "live.numbox", 0 ],
			"obj-1::obj-2::obj-40" : [ "live.numbox[34]", "live.numbox", 0 ],
			"obj-1::obj-2::obj-43" : [ "live.numbox[32]", "live.numbox", 0 ],
			"obj-1::obj-2::obj-45" : [ "live.numbox[29]", "live.numbox", 0 ],
			"obj-1::obj-2::obj-48" : [ "live.toggle", "live.toggle", 0 ],
			"obj-1::obj-2::obj-51" : [ "live.toggle[3]", "live.toggle", 0 ],
			"obj-1::obj-2::obj-9" : [ "live.dial[4]", "noise_filt", 0 ],
			"parameterbanks" : 			{

			}
,
			"parameter_overrides" : 			{
				"obj-1::obj-2::obj-1::obj-105::obj-10::obj-10::obj-145" : 				{
					"parameter_longname" : "live.menu[8]"
				}
,
				"obj-1::obj-2::obj-1::obj-105::obj-10::obj-196" : 				{
					"parameter_longname" : "live.text[13]"
				}
,
				"obj-1::obj-2::obj-1::obj-105::obj-182" : 				{
					"parameter_longname" : "live.text[14]"
				}
,
				"obj-1::obj-2::obj-1::obj-117::obj-10::obj-10::obj-145" : 				{
					"parameter_longname" : "live.menu[7]"
				}
,
				"obj-1::obj-2::obj-1::obj-117::obj-10::obj-196" : 				{
					"parameter_longname" : "live.text[9]"
				}
,
				"obj-1::obj-2::obj-1::obj-117::obj-182" : 				{
					"parameter_longname" : "live.text[12]"
				}
,
				"obj-1::obj-2::obj-1::obj-121::obj-10::obj-10::obj-145" : 				{
					"parameter_longname" : "live.menu[6]"
				}
,
				"obj-1::obj-2::obj-1::obj-121::obj-10::obj-196" : 				{
					"parameter_longname" : "live.text[7]"
				}
,
				"obj-1::obj-2::obj-1::obj-121::obj-182" : 				{
					"parameter_longname" : "live.text[8]"
				}
,
				"obj-1::obj-2::obj-1::obj-67::obj-10::obj-10::obj-145" : 				{
					"parameter_longname" : "live.menu[1]"
				}
,
				"obj-1::obj-2::obj-1::obj-67::obj-10::obj-196" : 				{
					"parameter_longname" : "live.text[1]"
				}
,
				"obj-1::obj-2::obj-1::obj-67::obj-182" : 				{
					"parameter_longname" : "live.text[2]"
				}
,
				"obj-1::obj-2::obj-1::obj-68::obj-10::obj-10::obj-145" : 				{
					"parameter_longname" : "live.menu[5]"
				}
,
				"obj-1::obj-2::obj-1::obj-68::obj-10::obj-196" : 				{
					"parameter_longname" : "live.text[3]"
				}
,
				"obj-1::obj-2::obj-1::obj-68::obj-182" : 				{
					"parameter_longname" : "live.text[4]"
				}
,
				"obj-1::obj-2::obj-1::obj-70::obj-10::obj-10::obj-145" : 				{
					"parameter_longname" : "live.menu[2]"
				}
,
				"obj-1::obj-2::obj-1::obj-70::obj-10::obj-196" : 				{
					"parameter_longname" : "live.text[5]"
				}
,
				"obj-1::obj-2::obj-1::obj-70::obj-182" : 				{
					"parameter_longname" : "live.text[6]"
				}

			}
,
			"inherited_shortname" : 1
		}
,
		"dependency_cache" : [ 			{
				"name" : "ossia.pvh.complexosc~.module.maxpat",
				"bootpath" : "~/src/Max/PVH-maxlib_ossia/ossia.pvh.complexosc~",
				"patcherrelativepath" : "../ossia.pvh.complexosc~",
				"type" : "JSON",
				"implicit" : 1
			}
, 			{
				"name" : "ossia.pvh.complexosc~.model.maxpat",
				"bootpath" : "~/src/Max/PVH-maxlib_ossia/ossia.pvh.complexosc~",
				"patcherrelativepath" : "../ossia.pvh.complexosc~",
				"type" : "JSON",
				"implicit" : 1
			}
, 			{
				"name" : "ossia.pvh.chanctl~.model.maxpat",
				"bootpath" : "~/src/Max/PVH-maxlib_ossia/ossia.pvh.chanctl~",
				"patcherrelativepath" : "../ossia.pvh.chanctl~",
				"type" : "JSON",
				"implicit" : 1
			}
, 			{
				"name" : "polycomplexosc.maxpat",
				"bootpath" : "~/src/Max/PVH-maxlib_ossia/ossia.pvh.complexosc~/include",
				"patcherrelativepath" : "../ossia.pvh.complexosc~/include",
				"type" : "JSON",
				"implicit" : 1
			}
, 			{
				"name" : "complexosc.gendsp",
				"bootpath" : "~/src/Max/PVH-maxlib_ossia/ossia.pvh.complexosc~/include",
				"patcherrelativepath" : "../ossia.pvh.complexosc~/include",
				"type" : "gDSP",
				"implicit" : 1
			}
, 			{
				"name" : "ossia.nav.oscroute.model.maxpat",
				"bootpath" : "~/src/Max/tml-ossia/nav/nav.oscroute",
				"patcherrelativepath" : "../../tml-ossia/nav/nav.oscroute",
				"type" : "JSON",
				"implicit" : 1
			}
, 			{
				"name" : "thru.maxpat",
				"bootpath" : "C74:/patchers/m4l/Pluggo for Live resources/patches",
				"type" : "JSON",
				"implicit" : 1
			}
, 			{
				"name" : "ossia.namespacebrowser.model.maxpat",
				"bootpath" : "~/src/Max/tml-ossia/utilities/namespacebrowser",
				"patcherrelativepath" : "../../tml-ossia/utilities/namespacebrowser",
				"type" : "JSON",
				"implicit" : 1
			}
, 			{
				"name" : "ossia.pvh.complexosc~.view.maxpat",
				"bootpath" : "~/src/Max/PVH-maxlib_ossia/ossia.pvh.complexosc~",
				"patcherrelativepath" : "../ossia.pvh.complexosc~",
				"type" : "JSON",
				"implicit" : 1
			}
, 			{
				"name" : "ossia.nav.oscroute.view.maxpat",
				"bootpath" : "~/src/Max/tml-ossia/nav/nav.oscroute",
				"patcherrelativepath" : "../../tml-ossia/nav/nav.oscroute",
				"type" : "JSON",
				"implicit" : 1
			}
, 			{
				"name" : "ossia.namespacebrowser.view.maxpat",
				"bootpath" : "~/src/Max/tml-ossia/utilities/namespacebrowser",
				"patcherrelativepath" : "../../tml-ossia/utilities/namespacebrowser",
				"type" : "JSON",
				"implicit" : 1
			}
, 			{
				"name" : "o.get_onscreen_position.js",
				"bootpath" : "~/src/Max/tml-ossia/utilities/namespacebrowser",
				"patcherrelativepath" : "../../tml-ossia/utilities/namespacebrowser",
				"type" : "TEXT",
				"implicit" : 1
			}
, 			{
				"name" : "ossia.pvh.chanctl~.view.maxpat",
				"bootpath" : "~/src/Max/PVH-maxlib_ossia/ossia.pvh.chanctl~",
				"patcherrelativepath" : "../ossia.pvh.chanctl~",
				"type" : "JSON",
				"implicit" : 1
			}
, 			{
				"name" : "ossia.model.mxo",
				"type" : "iLaX"
			}
, 			{
				"name" : "ossia.parameter.mxo",
				"type" : "iLaX"
			}
, 			{
				"name" : "ossia.remote.mxo",
				"type" : "iLaX"
			}
, 			{
				"name" : "j.map.mxo",
				"type" : "iLaX"
			}
, 			{
				"name" : "j.stats.mxo",
				"type" : "iLaX"
			}
, 			{
				"name" : "ossia.fuzzysearch.mxo",
				"type" : "iLaX"
			}
, 			{
				"name" : "ossia.explorer.mxo",
				"type" : "iLaX"
			}
, 			{
				"name" : "ease.mxo",
				"type" : "iLaX"
			}
, 			{
				"name" : "ossia.view.mxo",
				"type" : "iLaX"
			}
, 			{
				"name" : "ossia.attribute.mxo",
				"type" : "iLaX"
			}
, 			{
				"name" : "ossia.device.mxo",
				"type" : "iLaX"
			}
 ],
		"autosave" : 0,
		"styles" : [ 			{
				"name" : "Jamoma_highlighted_orange",
				"default" : 				{
					"accentcolor" : [ 1.0, 0.5, 0.0, 1.0 ]
				}
,
				"parentstyle" : "",
				"multi" : 0
			}
 ]
	}

}
